<mxfile host="app.diagrams.net" modified="2024-03-25T10:23:03.918Z" agent="Mozilla/5.0 (Windows NT 10.0; Win64; x64) AppleWebKit/537.36 (KHTML, like Gecko) Chrome/123.0.0.0 Safari/537.36" etag="bwtaOma6JtmW9AGdR9oY" version="24.1.0" type="device">
  <diagram name="Page-1" id="uE0NwrkQISUYqbhKHIL9">
    <mxGraphModel dx="2037" dy="786" grid="1" gridSize="10" guides="1" tooltips="1" connect="1" arrows="1" fold="1" page="1" pageScale="1" pageWidth="850" pageHeight="1100" math="0" shadow="0">
      <root>
        <mxCell id="0" />
        <mxCell id="1" parent="0" />
        <mxCell id="33nysOxGAfEdaKVSdSYN-1" value="USER" style="swimlane;fontStyle=0;childLayout=stackLayout;horizontal=1;startSize=26;horizontalStack=0;resizeParent=1;resizeParentMax=0;resizeLast=0;collapsible=1;marginBottom=0;align=center;fontSize=14;" vertex="1" parent="1">
          <mxGeometry x="50" y="240" width="170" height="266" as="geometry" />
        </mxCell>
        <mxCell id="33nysOxGAfEdaKVSdSYN-2" value="&lt;b&gt;ID (PK)&lt;/b&gt;" style="text;strokeColor=none;fillColor=none;spacingLeft=4;spacingRight=4;overflow=hidden;rotatable=0;points=[[0,0.5],[1,0.5]];portConstraint=eastwest;fontSize=12;whiteSpace=wrap;html=1;" vertex="1" parent="33nysOxGAfEdaKVSdSYN-1">
          <mxGeometry y="26" width="170" height="30" as="geometry" />
        </mxCell>
        <mxCell id="33nysOxGAfEdaKVSdSYN-5" value="CompanyName" style="text;strokeColor=none;fillColor=none;spacingLeft=4;spacingRight=4;overflow=hidden;rotatable=0;points=[[0,0.5],[1,0.5]];portConstraint=eastwest;fontSize=12;whiteSpace=wrap;html=1;" vertex="1" parent="33nysOxGAfEdaKVSdSYN-1">
          <mxGeometry y="56" width="170" height="30" as="geometry" />
        </mxCell>
        <mxCell id="33nysOxGAfEdaKVSdSYN-3" value="Address" style="text;strokeColor=none;fillColor=none;spacingLeft=4;spacingRight=4;overflow=hidden;rotatable=0;points=[[0,0.5],[1,0.5]];portConstraint=eastwest;fontSize=12;whiteSpace=wrap;html=1;" vertex="1" parent="33nysOxGAfEdaKVSdSYN-1">
          <mxGeometry y="86" width="170" height="30" as="geometry" />
        </mxCell>
        <mxCell id="33nysOxGAfEdaKVSdSYN-4" value="LabourTarget" style="text;strokeColor=none;fillColor=none;spacingLeft=4;spacingRight=4;overflow=hidden;rotatable=0;points=[[0,0.5],[1,0.5]];portConstraint=eastwest;fontSize=12;whiteSpace=wrap;html=1;" vertex="1" parent="33nysOxGAfEdaKVSdSYN-1">
          <mxGeometry y="116" width="170" height="30" as="geometry" />
        </mxCell>
        <mxCell id="33nysOxGAfEdaKVSdSYN-6" value="TurnoverTarget&lt;div&gt;&lt;br&gt;&lt;/div&gt;" style="text;strokeColor=none;fillColor=none;spacingLeft=4;spacingRight=4;overflow=hidden;rotatable=0;points=[[0,0.5],[1,0.5]];portConstraint=eastwest;fontSize=12;whiteSpace=wrap;html=1;" vertex="1" parent="33nysOxGAfEdaKVSdSYN-1">
          <mxGeometry y="146" width="170" height="30" as="geometry" />
        </mxCell>
        <mxCell id="33nysOxGAfEdaKVSdSYN-7" value="Email" style="text;strokeColor=none;fillColor=none;spacingLeft=4;spacingRight=4;overflow=hidden;rotatable=0;points=[[0,0.5],[1,0.5]];portConstraint=eastwest;fontSize=12;whiteSpace=wrap;html=1;" vertex="1" parent="33nysOxGAfEdaKVSdSYN-1">
          <mxGeometry y="176" width="170" height="30" as="geometry" />
        </mxCell>
        <mxCell id="33nysOxGAfEdaKVSdSYN-29" value="CreatedDate" style="text;strokeColor=none;fillColor=none;spacingLeft=4;spacingRight=4;overflow=hidden;rotatable=0;points=[[0,0.5],[1,0.5]];portConstraint=eastwest;fontSize=12;whiteSpace=wrap;html=1;" vertex="1" parent="33nysOxGAfEdaKVSdSYN-1">
          <mxGeometry y="206" width="170" height="30" as="geometry" />
        </mxCell>
        <mxCell id="33nysOxGAfEdaKVSdSYN-30" value="UpdatedDate" style="text;strokeColor=none;fillColor=none;spacingLeft=4;spacingRight=4;overflow=hidden;rotatable=0;points=[[0,0.5],[1,0.5]];portConstraint=eastwest;fontSize=12;whiteSpace=wrap;html=1;" vertex="1" parent="33nysOxGAfEdaKVSdSYN-1">
          <mxGeometry y="236" width="170" height="30" as="geometry" />
        </mxCell>
        <mxCell id="33nysOxGAfEdaKVSdSYN-8" value="CUSTOMER_CAR" style="swimlane;fontStyle=0;childLayout=stackLayout;horizontal=1;startSize=26;horizontalStack=0;resizeParent=1;resizeParentMax=0;resizeLast=0;collapsible=1;marginBottom=0;align=center;fontSize=14;" vertex="1" parent="1">
          <mxGeometry x="350" y="80" width="170" height="416" as="geometry" />
        </mxCell>
        <mxCell id="33nysOxGAfEdaKVSdSYN-9" value="&lt;b&gt;ID (PK)&lt;/b&gt;" style="text;strokeColor=none;fillColor=none;spacingLeft=4;spacingRight=4;overflow=hidden;rotatable=0;points=[[0,0.5],[1,0.5]];portConstraint=eastwest;fontSize=12;whiteSpace=wrap;html=1;" vertex="1" parent="33nysOxGAfEdaKVSdSYN-8">
          <mxGeometry y="26" width="170" height="30" as="geometry" />
        </mxCell>
        <mxCell id="33nysOxGAfEdaKVSdSYN-10" value="UserID" style="text;strokeColor=none;fillColor=none;spacingLeft=4;spacingRight=4;overflow=hidden;rotatable=0;points=[[0,0.5],[1,0.5]];portConstraint=eastwest;fontSize=12;whiteSpace=wrap;html=1;" vertex="1" parent="33nysOxGAfEdaKVSdSYN-8">
          <mxGeometry y="56" width="170" height="30" as="geometry" />
        </mxCell>
        <mxCell id="33nysOxGAfEdaKVSdSYN-11" value="address" style="text;strokeColor=none;fillColor=none;spacingLeft=4;spacingRight=4;overflow=hidden;rotatable=0;points=[[0,0.5],[1,0.5]];portConstraint=eastwest;fontSize=12;whiteSpace=wrap;html=1;" vertex="1" parent="33nysOxGAfEdaKVSdSYN-8">
          <mxGeometry y="86" width="170" height="30" as="geometry" />
        </mxCell>
        <mxCell id="33nysOxGAfEdaKVSdSYN-12" value="AggServiceCharge" style="text;strokeColor=none;fillColor=none;spacingLeft=4;spacingRight=4;overflow=hidden;rotatable=0;points=[[0,0.5],[1,0.5]];portConstraint=eastwest;fontSize=12;whiteSpace=wrap;html=1;" vertex="1" parent="33nysOxGAfEdaKVSdSYN-8">
          <mxGeometry y="116" width="170" height="30" as="geometry" />
        </mxCell>
        <mxCell id="33nysOxGAfEdaKVSdSYN-13" value="AggLabourCost" style="text;strokeColor=none;fillColor=none;spacingLeft=4;spacingRight=4;overflow=hidden;rotatable=0;points=[[0,0.5],[1,0.5]];portConstraint=eastwest;fontSize=12;whiteSpace=wrap;html=1;" vertex="1" parent="33nysOxGAfEdaKVSdSYN-8">
          <mxGeometry y="146" width="170" height="30" as="geometry" />
        </mxCell>
        <mxCell id="33nysOxGAfEdaKVSdSYN-14" value="email" style="text;strokeColor=none;fillColor=none;spacingLeft=4;spacingRight=4;overflow=hidden;rotatable=0;points=[[0,0.5],[1,0.5]];portConstraint=eastwest;fontSize=12;whiteSpace=wrap;html=1;" vertex="1" parent="33nysOxGAfEdaKVSdSYN-8">
          <mxGeometry y="176" width="170" height="30" as="geometry" />
        </mxCell>
        <mxCell id="33nysOxGAfEdaKVSdSYN-62" value="Make" style="text;strokeColor=none;fillColor=none;spacingLeft=4;spacingRight=4;overflow=hidden;rotatable=0;points=[[0,0.5],[1,0.5]];portConstraint=eastwest;fontSize=12;whiteSpace=wrap;html=1;" vertex="1" parent="33nysOxGAfEdaKVSdSYN-8">
          <mxGeometry y="206" width="170" height="30" as="geometry" />
        </mxCell>
        <mxCell id="33nysOxGAfEdaKVSdSYN-63" value="Model" style="text;strokeColor=none;fillColor=none;spacingLeft=4;spacingRight=4;overflow=hidden;rotatable=0;points=[[0,0.5],[1,0.5]];portConstraint=eastwest;fontSize=12;whiteSpace=wrap;html=1;" vertex="1" parent="33nysOxGAfEdaKVSdSYN-8">
          <mxGeometry y="236" width="170" height="30" as="geometry" />
        </mxCell>
        <mxCell id="33nysOxGAfEdaKVSdSYN-64" value="Year" style="text;strokeColor=none;fillColor=none;spacingLeft=4;spacingRight=4;overflow=hidden;rotatable=0;points=[[0,0.5],[1,0.5]];portConstraint=eastwest;fontSize=12;whiteSpace=wrap;html=1;" vertex="1" parent="33nysOxGAfEdaKVSdSYN-8">
          <mxGeometry y="266" width="170" height="30" as="geometry" />
        </mxCell>
        <mxCell id="33nysOxGAfEdaKVSdSYN-65" value="IsPaid" style="text;strokeColor=none;fillColor=none;spacingLeft=4;spacingRight=4;overflow=hidden;rotatable=0;points=[[0,0.5],[1,0.5]];portConstraint=eastwest;fontSize=12;whiteSpace=wrap;html=1;" vertex="1" parent="33nysOxGAfEdaKVSdSYN-8">
          <mxGeometry y="296" width="170" height="30" as="geometry" />
        </mxCell>
        <mxCell id="33nysOxGAfEdaKVSdSYN-31" value="ServiceDate" style="text;strokeColor=none;fillColor=none;spacingLeft=4;spacingRight=4;overflow=hidden;rotatable=0;points=[[0,0.5],[1,0.5]];portConstraint=eastwest;fontSize=12;whiteSpace=wrap;html=1;" vertex="1" parent="33nysOxGAfEdaKVSdSYN-8">
          <mxGeometry y="326" width="170" height="30" as="geometry" />
        </mxCell>
        <mxCell id="33nysOxGAfEdaKVSdSYN-32" value="CreatedDate" style="text;strokeColor=none;fillColor=none;spacingLeft=4;spacingRight=4;overflow=hidden;rotatable=0;points=[[0,0.5],[1,0.5]];portConstraint=eastwest;fontSize=12;whiteSpace=wrap;html=1;" vertex="1" parent="33nysOxGAfEdaKVSdSYN-8">
          <mxGeometry y="356" width="170" height="30" as="geometry" />
        </mxCell>
        <mxCell id="33nysOxGAfEdaKVSdSYN-33" value="UpdatedDate" style="text;strokeColor=none;fillColor=none;spacingLeft=4;spacingRight=4;overflow=hidden;rotatable=0;points=[[0,0.5],[1,0.5]];portConstraint=eastwest;fontSize=12;whiteSpace=wrap;html=1;" vertex="1" parent="33nysOxGAfEdaKVSdSYN-8">
          <mxGeometry y="386" width="170" height="30" as="geometry" />
        </mxCell>
        <mxCell id="33nysOxGAfEdaKVSdSYN-15" value="INVOICE_ITEM" style="swimlane;fontStyle=0;childLayout=stackLayout;horizontal=1;startSize=26;horizontalStack=0;resizeParent=1;resizeParentMax=0;resizeLast=0;collapsible=1;marginBottom=0;align=center;fontSize=14;" vertex="1" parent="1">
          <mxGeometry x="660" y="120" width="170" height="266" as="geometry" />
        </mxCell>
        <mxCell id="33nysOxGAfEdaKVSdSYN-16" value="&lt;b&gt;ID (PK)&lt;/b&gt;" style="text;strokeColor=none;fillColor=none;spacingLeft=4;spacingRight=4;overflow=hidden;rotatable=0;points=[[0,0.5],[1,0.5]];portConstraint=eastwest;fontSize=12;whiteSpace=wrap;html=1;" vertex="1" parent="33nysOxGAfEdaKVSdSYN-15">
          <mxGeometry y="26" width="170" height="30" as="geometry" />
        </mxCell>
        <mxCell id="33nysOxGAfEdaKVSdSYN-17" value="CustomerID" style="text;strokeColor=none;fillColor=none;spacingLeft=4;spacingRight=4;overflow=hidden;rotatable=0;points=[[0,0.5],[1,0.5]];portConstraint=eastwest;fontSize=12;whiteSpace=wrap;html=1;" vertex="1" parent="33nysOxGAfEdaKVSdSYN-15">
          <mxGeometry y="56" width="170" height="30" as="geometry" />
        </mxCell>
        <mxCell id="33nysOxGAfEdaKVSdSYN-18" value="Title" style="text;strokeColor=none;fillColor=none;spacingLeft=4;spacingRight=4;overflow=hidden;rotatable=0;points=[[0,0.5],[1,0.5]];portConstraint=eastwest;fontSize=12;whiteSpace=wrap;html=1;" vertex="1" parent="33nysOxGAfEdaKVSdSYN-15">
          <mxGeometry y="86" width="170" height="30" as="geometry" />
        </mxCell>
        <mxCell id="33nysOxGAfEdaKVSdSYN-19" value="Description" style="text;strokeColor=none;fillColor=none;spacingLeft=4;spacingRight=4;overflow=hidden;rotatable=0;points=[[0,0.5],[1,0.5]];portConstraint=eastwest;fontSize=12;whiteSpace=wrap;html=1;" vertex="1" parent="33nysOxGAfEdaKVSdSYN-15">
          <mxGeometry y="116" width="170" height="30" as="geometry" />
        </mxCell>
        <mxCell id="33nysOxGAfEdaKVSdSYN-38" value="LabourCharge" style="text;strokeColor=none;fillColor=none;spacingLeft=4;spacingRight=4;overflow=hidden;rotatable=0;points=[[0,0.5],[1,0.5]];portConstraint=eastwest;fontSize=12;whiteSpace=wrap;html=1;" vertex="1" parent="33nysOxGAfEdaKVSdSYN-15">
          <mxGeometry y="146" width="170" height="30" as="geometry" />
        </mxCell>
        <mxCell id="33nysOxGAfEdaKVSdSYN-39" value="ServiceCharge" style="text;strokeColor=none;fillColor=none;spacingLeft=4;spacingRight=4;overflow=hidden;rotatable=0;points=[[0,0.5],[1,0.5]];portConstraint=eastwest;fontSize=12;whiteSpace=wrap;html=1;" vertex="1" parent="33nysOxGAfEdaKVSdSYN-15">
          <mxGeometry y="176" width="170" height="30" as="geometry" />
        </mxCell>
        <mxCell id="33nysOxGAfEdaKVSdSYN-20" value="CreatedDate" style="text;strokeColor=none;fillColor=none;spacingLeft=4;spacingRight=4;overflow=hidden;rotatable=0;points=[[0,0.5],[1,0.5]];portConstraint=eastwest;fontSize=12;whiteSpace=wrap;html=1;" vertex="1" parent="33nysOxGAfEdaKVSdSYN-15">
          <mxGeometry y="206" width="170" height="30" as="geometry" />
        </mxCell>
        <mxCell id="33nysOxGAfEdaKVSdSYN-21" value="UpdatedTime" style="text;strokeColor=none;fillColor=none;spacingLeft=4;spacingRight=4;overflow=hidden;rotatable=0;points=[[0,0.5],[1,0.5]];portConstraint=eastwest;fontSize=12;whiteSpace=wrap;html=1;" vertex="1" parent="33nysOxGAfEdaKVSdSYN-15">
          <mxGeometry y="236" width="170" height="30" as="geometry" />
        </mxCell>
        <mxCell id="33nysOxGAfEdaKVSdSYN-22" value="CUSTOMER_AUTH" style="swimlane;fontStyle=0;childLayout=stackLayout;horizontal=1;startSize=26;horizontalStack=0;resizeParent=1;resizeParentMax=0;resizeLast=0;collapsible=1;marginBottom=0;align=center;fontSize=14;" vertex="1" parent="1">
          <mxGeometry x="350" y="520" width="170" height="176" as="geometry" />
        </mxCell>
        <mxCell id="33nysOxGAfEdaKVSdSYN-23" value="&lt;b&gt;ID (PK)&lt;/b&gt;" style="text;strokeColor=none;fillColor=none;spacingLeft=4;spacingRight=4;overflow=hidden;rotatable=0;points=[[0,0.5],[1,0.5]];portConstraint=eastwest;fontSize=12;whiteSpace=wrap;html=1;" vertex="1" parent="33nysOxGAfEdaKVSdSYN-22">
          <mxGeometry y="26" width="170" height="30" as="geometry" />
        </mxCell>
        <mxCell id="33nysOxGAfEdaKVSdSYN-24" value="UserID" style="text;strokeColor=none;fillColor=none;spacingLeft=4;spacingRight=4;overflow=hidden;rotatable=0;points=[[0,0.5],[1,0.5]];portConstraint=eastwest;fontSize=12;whiteSpace=wrap;html=1;" vertex="1" parent="33nysOxGAfEdaKVSdSYN-22">
          <mxGeometry y="56" width="170" height="30" as="geometry" />
        </mxCell>
        <mxCell id="33nysOxGAfEdaKVSdSYN-25" value="PasswordHash" style="text;strokeColor=none;fillColor=none;spacingLeft=4;spacingRight=4;overflow=hidden;rotatable=0;points=[[0,0.5],[1,0.5]];portConstraint=eastwest;fontSize=12;whiteSpace=wrap;html=1;" vertex="1" parent="33nysOxGAfEdaKVSdSYN-22">
          <mxGeometry y="86" width="170" height="30" as="geometry" />
        </mxCell>
        <mxCell id="33nysOxGAfEdaKVSdSYN-27" value="CreatedDate" style="text;strokeColor=none;fillColor=none;spacingLeft=4;spacingRight=4;overflow=hidden;rotatable=0;points=[[0,0.5],[1,0.5]];portConstraint=eastwest;fontSize=12;whiteSpace=wrap;html=1;" vertex="1" parent="33nysOxGAfEdaKVSdSYN-22">
          <mxGeometry y="116" width="170" height="30" as="geometry" />
        </mxCell>
        <mxCell id="33nysOxGAfEdaKVSdSYN-28" value="UpdatedDate" style="text;strokeColor=none;fillColor=none;spacingLeft=4;spacingRight=4;overflow=hidden;rotatable=0;points=[[0,0.5],[1,0.5]];portConstraint=eastwest;fontSize=12;whiteSpace=wrap;html=1;" vertex="1" parent="33nysOxGAfEdaKVSdSYN-22">
          <mxGeometry y="146" width="170" height="30" as="geometry" />
        </mxCell>
        <mxCell id="33nysOxGAfEdaKVSdSYN-35" value="" style="edgeStyle=entityRelationEdgeStyle;fontSize=12;html=1;endArrow=ERoneToMany;startArrow=ERmandOne;rounded=0;entryX=0;entryY=0.5;entryDx=0;entryDy=0;exitX=1.001;exitY=0.244;exitDx=0;exitDy=0;exitPerimeter=0;" edge="1" parent="1" source="33nysOxGAfEdaKVSdSYN-2" target="33nysOxGAfEdaKVSdSYN-10">
          <mxGeometry width="100" height="100" relative="1" as="geometry">
            <mxPoint x="230" y="550" as="sourcePoint" />
            <mxPoint x="330" y="450" as="targetPoint" />
          </mxGeometry>
        </mxCell>
        <mxCell id="33nysOxGAfEdaKVSdSYN-37" value="" style="edgeStyle=entityRelationEdgeStyle;fontSize=12;html=1;endArrow=ERzeroToOne;startArrow=ERmandOne;rounded=0;entryX=0;entryY=0.5;entryDx=0;entryDy=0;" edge="1" parent="1" target="33nysOxGAfEdaKVSdSYN-24">
          <mxGeometry width="100" height="100" relative="1" as="geometry">
            <mxPoint x="220" y="280" as="sourcePoint" />
            <mxPoint x="420" y="420" as="targetPoint" />
          </mxGeometry>
        </mxCell>
        <mxCell id="33nysOxGAfEdaKVSdSYN-40" value="" style="edgeStyle=entityRelationEdgeStyle;fontSize=12;html=1;endArrow=ERmany;rounded=0;exitX=1;exitY=0.5;exitDx=0;exitDy=0;entryX=-0.007;entryY=0.347;entryDx=0;entryDy=0;entryPerimeter=0;" edge="1" parent="1" source="33nysOxGAfEdaKVSdSYN-9" target="33nysOxGAfEdaKVSdSYN-17">
          <mxGeometry width="100" height="100" relative="1" as="geometry">
            <mxPoint x="700" y="350" as="sourcePoint" />
            <mxPoint x="800" y="250" as="targetPoint" />
          </mxGeometry>
        </mxCell>
        <mxCell id="33nysOxGAfEdaKVSdSYN-41" value="CUSTOMER_TEMPLATE" style="swimlane;fontStyle=0;childLayout=stackLayout;horizontal=1;startSize=26;horizontalStack=0;resizeParent=1;resizeParentMax=0;resizeLast=0;collapsible=1;marginBottom=0;align=center;fontSize=14;" vertex="1" parent="1">
          <mxGeometry x="660" y="420" width="170" height="176" as="geometry" />
        </mxCell>
        <mxCell id="33nysOxGAfEdaKVSdSYN-42" value="&lt;b&gt;ID (PK)&lt;/b&gt;" style="text;strokeColor=none;fillColor=none;spacingLeft=4;spacingRight=4;overflow=hidden;rotatable=0;points=[[0,0.5],[1,0.5]];portConstraint=eastwest;fontSize=12;whiteSpace=wrap;html=1;" vertex="1" parent="33nysOxGAfEdaKVSdSYN-41">
          <mxGeometry y="26" width="170" height="30" as="geometry" />
        </mxCell>
        <mxCell id="33nysOxGAfEdaKVSdSYN-43" value="CustomerID" style="text;strokeColor=none;fillColor=none;spacingLeft=4;spacingRight=4;overflow=hidden;rotatable=0;points=[[0,0.5],[1,0.5]];portConstraint=eastwest;fontSize=12;whiteSpace=wrap;html=1;" vertex="1" parent="33nysOxGAfEdaKVSdSYN-41">
          <mxGeometry y="56" width="170" height="30" as="geometry" />
        </mxCell>
        <mxCell id="33nysOxGAfEdaKVSdSYN-44" value="TemplateID" style="text;strokeColor=none;fillColor=none;spacingLeft=4;spacingRight=4;overflow=hidden;rotatable=0;points=[[0,0.5],[1,0.5]];portConstraint=eastwest;fontSize=12;whiteSpace=wrap;html=1;" vertex="1" parent="33nysOxGAfEdaKVSdSYN-41">
          <mxGeometry y="86" width="170" height="30" as="geometry" />
        </mxCell>
        <mxCell id="33nysOxGAfEdaKVSdSYN-48" value="CreatedDate" style="text;strokeColor=none;fillColor=none;spacingLeft=4;spacingRight=4;overflow=hidden;rotatable=0;points=[[0,0.5],[1,0.5]];portConstraint=eastwest;fontSize=12;whiteSpace=wrap;html=1;" vertex="1" parent="33nysOxGAfEdaKVSdSYN-41">
          <mxGeometry y="116" width="170" height="30" as="geometry" />
        </mxCell>
        <mxCell id="33nysOxGAfEdaKVSdSYN-49" value="UpdatedTime" style="text;strokeColor=none;fillColor=none;spacingLeft=4;spacingRight=4;overflow=hidden;rotatable=0;points=[[0,0.5],[1,0.5]];portConstraint=eastwest;fontSize=12;whiteSpace=wrap;html=1;" vertex="1" parent="33nysOxGAfEdaKVSdSYN-41">
          <mxGeometry y="146" width="170" height="30" as="geometry" />
        </mxCell>
        <mxCell id="33nysOxGAfEdaKVSdSYN-50" value="" style="edgeStyle=entityRelationEdgeStyle;fontSize=12;html=1;endArrow=ERmany;rounded=0;exitX=1;exitY=0.5;exitDx=0;exitDy=0;entryX=0;entryY=0.5;entryDx=0;entryDy=0;" edge="1" parent="1" source="33nysOxGAfEdaKVSdSYN-9" target="33nysOxGAfEdaKVSdSYN-43">
          <mxGeometry width="100" height="100" relative="1" as="geometry">
            <mxPoint x="530" y="131" as="sourcePoint" />
            <mxPoint x="669" y="196" as="targetPoint" />
          </mxGeometry>
        </mxCell>
        <mxCell id="33nysOxGAfEdaKVSdSYN-51" value="INVOICE_ITEM" style="swimlane;fontStyle=0;childLayout=stackLayout;horizontal=1;startSize=26;horizontalStack=0;resizeParent=1;resizeParentMax=0;resizeLast=0;collapsible=1;marginBottom=0;align=center;fontSize=14;" vertex="1" parent="1">
          <mxGeometry x="980" y="120" width="170" height="266" as="geometry" />
        </mxCell>
        <mxCell id="33nysOxGAfEdaKVSdSYN-52" value="&lt;b&gt;ID (PK)&lt;/b&gt;" style="text;strokeColor=none;fillColor=none;spacingLeft=4;spacingRight=4;overflow=hidden;rotatable=0;points=[[0,0.5],[1,0.5]];portConstraint=eastwest;fontSize=12;whiteSpace=wrap;html=1;" vertex="1" parent="33nysOxGAfEdaKVSdSYN-51">
          <mxGeometry y="26" width="170" height="30" as="geometry" />
        </mxCell>
        <mxCell id="33nysOxGAfEdaKVSdSYN-53" value="TemplateID" style="text;strokeColor=none;fillColor=none;spacingLeft=4;spacingRight=4;overflow=hidden;rotatable=0;points=[[0,0.5],[1,0.5]];portConstraint=eastwest;fontSize=12;whiteSpace=wrap;html=1;" vertex="1" parent="33nysOxGAfEdaKVSdSYN-51">
          <mxGeometry y="56" width="170" height="30" as="geometry" />
        </mxCell>
        <mxCell id="33nysOxGAfEdaKVSdSYN-54" value="Title" style="text;strokeColor=none;fillColor=none;spacingLeft=4;spacingRight=4;overflow=hidden;rotatable=0;points=[[0,0.5],[1,0.5]];portConstraint=eastwest;fontSize=12;whiteSpace=wrap;html=1;" vertex="1" parent="33nysOxGAfEdaKVSdSYN-51">
          <mxGeometry y="86" width="170" height="30" as="geometry" />
        </mxCell>
        <mxCell id="33nysOxGAfEdaKVSdSYN-55" value="Description" style="text;strokeColor=none;fillColor=none;spacingLeft=4;spacingRight=4;overflow=hidden;rotatable=0;points=[[0,0.5],[1,0.5]];portConstraint=eastwest;fontSize=12;whiteSpace=wrap;html=1;" vertex="1" parent="33nysOxGAfEdaKVSdSYN-51">
          <mxGeometry y="116" width="170" height="30" as="geometry" />
        </mxCell>
        <mxCell id="33nysOxGAfEdaKVSdSYN-56" value="LabourCharge" style="text;strokeColor=none;fillColor=none;spacingLeft=4;spacingRight=4;overflow=hidden;rotatable=0;points=[[0,0.5],[1,0.5]];portConstraint=eastwest;fontSize=12;whiteSpace=wrap;html=1;" vertex="1" parent="33nysOxGAfEdaKVSdSYN-51">
          <mxGeometry y="146" width="170" height="30" as="geometry" />
        </mxCell>
        <mxCell id="33nysOxGAfEdaKVSdSYN-57" value="ServiceCharge" style="text;strokeColor=none;fillColor=none;spacingLeft=4;spacingRight=4;overflow=hidden;rotatable=0;points=[[0,0.5],[1,0.5]];portConstraint=eastwest;fontSize=12;whiteSpace=wrap;html=1;" vertex="1" parent="33nysOxGAfEdaKVSdSYN-51">
          <mxGeometry y="176" width="170" height="30" as="geometry" />
        </mxCell>
        <mxCell id="33nysOxGAfEdaKVSdSYN-58" value="CreatedDate" style="text;strokeColor=none;fillColor=none;spacingLeft=4;spacingRight=4;overflow=hidden;rotatable=0;points=[[0,0.5],[1,0.5]];portConstraint=eastwest;fontSize=12;whiteSpace=wrap;html=1;" vertex="1" parent="33nysOxGAfEdaKVSdSYN-51">
          <mxGeometry y="206" width="170" height="30" as="geometry" />
        </mxCell>
        <mxCell id="33nysOxGAfEdaKVSdSYN-59" value="UpdatedTime" style="text;strokeColor=none;fillColor=none;spacingLeft=4;spacingRight=4;overflow=hidden;rotatable=0;points=[[0,0.5],[1,0.5]];portConstraint=eastwest;fontSize=12;whiteSpace=wrap;html=1;" vertex="1" parent="33nysOxGAfEdaKVSdSYN-51">
          <mxGeometry y="236" width="170" height="30" as="geometry" />
        </mxCell>
        <mxCell id="33nysOxGAfEdaKVSdSYN-60" value="" style="edgeStyle=entityRelationEdgeStyle;fontSize=12;html=1;endArrow=ERmany;rounded=0;exitX=1;exitY=0.5;exitDx=0;exitDy=0;entryX=0;entryY=0.5;entryDx=0;entryDy=0;" edge="1" parent="1" source="33nysOxGAfEdaKVSdSYN-44" target="33nysOxGAfEdaKVSdSYN-53">
          <mxGeometry width="100" height="100" relative="1" as="geometry">
            <mxPoint x="950" y="360" as="sourcePoint" />
            <mxPoint x="1090" y="700" as="targetPoint" />
          </mxGeometry>
        </mxCell>
      </root>
    </mxGraphModel>
  </diagram>
</mxfile>
